<svg width="50" height="50" viewBox="0 0 50 50" fill="none" xmlns="http://www.w3.org/2000/svg">
<path d="M3.84937 12.7887L25 0.57735L46.1506 12.7887V37.2113L25 49.4226L3.84937 37.2113V12.7887Z" stroke="#FFD700"/>
<path d="M33.6869 25.3536C33.8821 25.1583 33.8821 24.8417 33.6869 24.6464L30.5049 21.4645C30.3096 21.2692 29.9931 21.2692 29.7978 21.4645C29.6025 21.6597 29.6025 21.9763 29.7978 22.1716L32.6262 25L29.7978 27.8284C29.6025 28.0237 29.6025 28.3403 29.7978 28.5355C29.9931 28.7308 30.3096 28.7308 30.5049 28.5355L33.6869 25.3536ZM16.6667 25.5H33.3333V24.5H16.6667V25.5Z" fill="#FFD700"/>
</svg>
