<svg width="50" height="50" viewBox="0 0 50 50" fill="none" xmlns="http://www.w3.org/2000/svg">
<path d="M3.84937 12.7887L25 0.57735L46.1506 12.7887V37.2113L25 49.4226L3.84937 37.2113V12.7887Z" stroke="#FFD700"/>
<path d="M16.3131 24.6464C16.1179 24.8417 16.1179 25.1583 16.3131 25.3536L19.4951 28.5355C19.6904 28.7308 20.0069 28.7308 20.2022 28.5355C20.3975 28.3403 20.3975 28.0237 20.2022 27.8284L17.3738 25L20.2022 22.1716C20.3975 21.9763 20.3975 21.6597 20.2022 21.4645C20.0069 21.2692 19.6904 21.2692 19.4951 21.4645L16.3131 24.6464ZM33.3333 24.5H16.6667V25.5H33.3333V24.5Z" fill="#FFD700"/>
</svg>
