<?xml version="1.0" standalone="no"?>
<!DOCTYPE svg PUBLIC "-//W3C//DTD SVG 20010904//EN"
 "http://www.w3.org/TR/2001/REC-SVG-20010904/DTD/svg10.dtd">
<svg version="1.0" xmlns="http://www.w3.org/2000/svg"
 width="2064.000000pt" height="2064.000000pt" viewBox="0 0 2064.000000 2064.000000"
 preserveAspectRatio="xMidYMid meet">
<metadata>
Created by potrace 1.14, written by Peter Selinger 2001-2017
</metadata>
<g transform="translate(0.000000,2064.000000) scale(0.100000,-0.100000)"
fill="#000000" stroke="none">
<path d="M9225 13793 c-136 -17 -267 -55 -377 -109 -224 -109 -381 -296 -423
-502 -19 -93 -19 -227 0 -317 46 -216 218 -384 505 -492 35 -14 186 -56 334
-94 367 -95 461 -136 523 -231 24 -36 28 -51 28 -117 0 -65 -4 -83 -27 -123
-59 -100 -168 -159 -332 -180 -80 -10 -109 -9 -197 5 -217 35 -337 135 -373
310 l-13 62 -268 3 -268 2 7 -67 c19 -184 79 -344 170 -455 176 -215 475 -328
866 -328 437 0 743 139 908 412 59 96 99 288 87 413 -35 373 -285 592 -815
715 -326 76 -430 114 -508 184 -22 20 -47 52 -56 70 -19 41 -21 153 -4 193 34
79 108 136 220 170 84 25 267 22 355 -6 125 -40 208 -125 235 -239 l13 -52
264 0 264 0 -6 73 c-3 39 -17 108 -31 152 -111 349 -465 559 -931 553 -66 0
-133 -3 -150 -5z"/>
<path d="M16340 13785 c-462 -73 -819 -398 -939 -857 -41 -157 -46 -209 -46
-448 0 -290 22 -421 102 -610 192 -449 593 -710 1093 -710 602 0 1055 376
1174 975 41 208 41 481 0 690 -103 522 -462 878 -967 960 -111 18 -301 18
-417 0z m412 -504 c81 -26 203 -105 250 -163 146 -179 207 -423 186 -749 -30
-469 -282 -737 -675 -716 -289 16 -485 190 -571 506 -24 90 -26 110 -26 321 0
211 2 231 26 321 41 152 90 240 183 335 88 89 164 133 277 159 91 21 264 14
350 -14z"/>
<path d="M60 12485 l0 -1285 275 0 275 0 0 800 c0 440 3 800 8 800 4 0 193
-269 419 -598 227 -328 475 -687 551 -797 l138 -200 242 -3 242 -2 -2 1282 -3
1283 -270 0 -270 0 -3 -802 c-1 -445 -6 -803 -11 -803 -5 0 -257 362 -561 805
l-553 805 -238 0 -239 0 0 -1285z"/>
<path d="M2647 13763 c-4 -3 -7 -582 -7 -1285 l0 -1278 875 0 875 0 0 225 0
225 -595 0 -595 0 0 300 0 300 545 0 545 0 0 230 0 230 -545 0 -545 0 0 300 0
300 590 0 590 0 -2 228 -3 227 -861 3 c-473 1 -864 -1 -867 -5z"/>
<path d="M4650 13758 c-1 -7 163 -586 362 -1285 l363 -1273 271 0 271 0 228
788 c125 433 234 809 242 836 8 27 18 45 22 40 5 -5 67 -214 140 -464 72 -250
180 -621 239 -825 l108 -370 271 -3 270 -2 77 267 c42 148 206 722 365 1278
159 555 287 1013 285 1017 -3 5 -137 8 -299 8 l-294 0 -10 -37 c-6 -21 -49
-200 -96 -398 -47 -198 -128 -540 -180 -760 -52 -220 -105 -440 -116 -490 -12
-49 -25 -94 -29 -98 -9 -10 12 -87 -258 948 l-218 830 -250 3 c-194 2 -253 -1
-261 -10 -5 -7 -26 -76 -46 -153 -20 -77 -61 -232 -91 -345 -323 -1230 -332
-1265 -341 -1263 -5 1 -53 186 -106 410 -201 848 -321 1348 -326 1355 -2 5
-137 8 -299 8 -228 0 -294 -3 -294 -12z"/>
<path d="M10637 13763 c-4 -3 -7 -107 -7 -230 l0 -223 395 0 395 0 0 -1055 0
-1055 270 0 270 0 0 1055 0 1055 393 2 392 3 0 225 0 225 -1051 3 c-578 1
-1054 -1 -1057 -5z"/>
<path d="M13087 13763 c-4 -3 -7 -582 -7 -1285 l0 -1278 275 0 275 0 0 456 0
457 191 -5 c169 -4 193 -7 205 -22 7 -10 117 -213 244 -452 l232 -434 304 0
304 0 -36 73 c-20 39 -135 262 -255 494 -121 232 -219 426 -219 430 0 4 29 24
63 43 79 45 201 167 250 250 78 134 113 302 103 491 -20 392 -248 665 -631
754 -36 8 -117 19 -178 25 -124 11 -1110 14 -1120 3z m1071 -468 c196 -46 292
-167 292 -370 0 -70 -17 -151 -39 -194 -24 -45 -85 -103 -134 -128 -86 -43
-161 -53 -414 -53 l-233 0 0 380 0 380 233 0 c169 0 249 -4 295 -15z"/>
<path d="M17846 13762 c-3 -5 3 -22 13 -38 10 -16 219 -385 464 -821 l447
-792 0 -455 0 -456 275 0 275 0 0 449 0 449 461 818 c254 450 464 826 467 836
4 17 -12 18 -296 18 l-301 0 -19 -27 c-10 -16 -144 -265 -297 -556 -154 -290
-283 -526 -288 -524 -5 1 -138 246 -296 543 -157 297 -290 545 -294 552 -10
14 -602 18 -611 4z"/>
<path d="M4932 8103 l3 -1228 150 0 150 0 3 448 2 447 328 0 c325 0 408 6 527
41 67 19 157 66 227 119 331 250 372 852 80 1162 -101 107 -227 177 -387 215
-59 14 -149 17 -578 20 l-507 4 2 -1228z m899 947 c59 -6 132 -19 164 -30 199
-68 295 -222 295 -470 0 -254 -96 -403 -306 -477 l-79 -27 -332 -4 -333 -4 0
511 0 511 243 0 c133 0 290 -5 348 -10z"/>
<path d="M9310 8721 c-239 -56 -405 -197 -455 -386 -29 -112 -38 -105 139
-105 l153 0 6 36 c13 77 92 153 201 191 38 14 81 18 171 18 104 0 127 -4 173
-24 154 -69 201 -261 98 -396 -60 -78 -172 -105 -438 -105 l-148 0 0 -130 0
-130 184 0 c254 0 334 -19 412 -97 60 -60 78 -107 78 -203 0 -125 -33 -181
-139 -233 -82 -41 -133 -51 -260 -51 -101 -1 -131 3 -189 23 -92 32 -157 94
-176 169 l-14 52 -153 0 -153 0 0 -35 c0 -46 34 -145 67 -198 68 -107 209
-203 369 -249 69 -20 101 -23 254 -23 199 0 252 10 386 74 222 106 341 320
306 549 -29 180 -149 325 -290 348 -23 4 -42 10 -42 13 0 4 26 18 58 31 78 32
192 145 216 215 42 121 28 271 -36 384 -72 125 -233 233 -400 266 -103 20
-282 18 -378 -4z"/>
<path d="M11086 8725 c-241 -50 -419 -170 -510 -343 -21 -41 -36 -75 -34 -77
5 -6 254 -95 264 -95 5 0 22 20 37 44 35 55 135 150 188 176 113 58 343 67
452 17 111 -51 171 -146 184 -291 4 -55 2 -79 -10 -103 -27 -52 -54 -59 -412
-104 -229 -28 -373 -63 -482 -114 -119 -56 -181 -114 -231 -214 l-37 -75 0
-145 c1 -128 3 -153 23 -203 69 -173 207 -291 402 -344 92 -25 312 -25 395 0
135 40 281 145 332 238 l18 33 5 -125 5 -125 140 0 140 0 0 695 0 695 -23 70
c-66 198 -199 321 -409 376 -103 27 -337 35 -437 14z m582 -1132 l-4 -151 -42
-85 c-49 -98 -110 -159 -207 -207 -81 -40 -158 -53 -292 -48 -105 4 -116 7
-187 42 -109 53 -156 126 -156 240 0 145 78 226 262 275 72 19 107 25 338 57
130 17 267 51 278 68 12 18 14 -30 10 -191z"/>
<path d="M7479 8704 c-240 -43 -401 -179 -454 -381 -20 -77 -19 -240 3 -324
35 -131 131 -248 257 -310 l65 -32 -19 -31 c-64 -105 -421 -738 -421 -746 0
-6 61 -10 154 -10 l153 0 214 375 214 375 242 0 243 0 2 -372 3 -373 135 0
135 0 0 920 0 920 -425 2 c-325 1 -443 -2 -501 -13z m651 -535 l0 -281 -308 4
-307 3 -68 33 c-46 23 -77 47 -97 73 -76 106 -61 286 31 363 89 75 138 84 472
85 l277 1 0 -281z"/>
<path d="M12470 7795 l0 -926 143 3 142 3 3 393 2 392 430 0 430 0 2 -392 3
-393 145 0 145 0 0 920 0 920 -145 0 -145 0 -3 -392 -2 -393 -430 0 -430 0 -2
393 -3 392 -142 3 -143 3 0 -926z"/>
<path d="M14422 7798 l3 -923 445 1 c496 0 531 4 665 67 137 66 231 167 291
312 27 66 29 77 28 215 0 125 -3 153 -22 205 -67 179 -213 306 -413 356 -74
18 -123 22 -396 26 l-313 6 0 328 0 329 -145 0 -145 0 2 -922z m889 -32 c166
-39 269 -173 257 -331 -10 -114 -68 -192 -184 -247 l-69 -33 -302 -3 -303 -3
0 315 0 316 273 0 c191 0 289 -4 328 -14z"/>
</g>
</svg>
