<svg width="258" height="88" viewBox="0 0 258 88" fill="none" xmlns="http://www.w3.org/2000/svg">
<path d="M27.5469 1V33H21.7031L7.78125 12.8594H7.54688V33H0.78125V1H6.71875L20.5312 21.125H20.8125V1H27.5469Z" fill="#FFD700"/>
<path d="M33.1367 33V1H54.6992V6.57812H39.9023V14.2031H53.5898V19.7812H39.9023V27.4219H54.7617V33H33.1367Z" fill="#FFD700"/>
<path d="M67.2812 33L58.125 1H65.5156L70.8125 23.2344H71.0781L76.9219 1H83.25L89.0781 23.2812H89.3594L94.6562 1H102.047L92.8906 33H86.2969L80.2031 12.0781H79.9531L73.875 33H67.2812Z" fill="#FFD700"/>
<path d="M122.727 10.2031C122.602 8.94271 122.065 7.96354 121.117 7.26562C120.169 6.56771 118.883 6.21875 117.258 6.21875C116.154 6.21875 115.221 6.375 114.461 6.6875C113.701 6.98958 113.117 7.41146 112.711 7.95312C112.315 8.49479 112.117 9.10938 112.117 9.79688C112.096 10.3698 112.216 10.8698 112.477 11.2969C112.747 11.724 113.117 12.0938 113.586 12.4063C114.055 12.7083 114.596 12.974 115.211 13.2031C115.826 13.4219 116.482 13.6094 117.18 13.7656L120.055 14.4531C121.451 14.7656 122.732 15.1823 123.898 15.7031C125.065 16.224 126.076 16.8646 126.93 17.625C127.784 18.3854 128.445 19.2812 128.914 20.3125C129.393 21.3438 129.638 22.526 129.648 23.8594C129.638 25.8177 129.138 27.5156 128.148 28.9531C127.169 30.3802 125.753 31.4896 123.898 32.2813C122.055 33.0625 119.831 33.4531 117.227 33.4531C114.643 33.4531 112.393 33.0573 110.477 32.2656C108.57 31.474 107.081 30.3021 106.008 28.75C104.945 27.1875 104.388 25.2552 104.336 22.9531H110.883C110.956 24.026 111.263 24.9219 111.805 25.6406C112.357 26.349 113.091 26.8854 114.008 27.25C114.935 27.6042 115.982 27.7812 117.148 27.7812C118.294 27.7812 119.289 27.6146 120.133 27.2813C120.987 26.9479 121.648 26.4844 122.117 25.8906C122.586 25.2969 122.82 24.6146 122.82 23.8438C122.82 23.125 122.607 22.5208 122.18 22.0312C121.763 21.5417 121.148 21.125 120.336 20.7812C119.534 20.4375 118.549 20.125 117.383 19.8438L113.898 18.9688C111.201 18.3125 109.07 17.2865 107.508 15.8906C105.945 14.4948 105.169 12.6146 105.18 10.25C105.169 8.3125 105.685 6.61979 106.727 5.17188C107.779 3.72396 109.221 2.59375 111.055 1.78125C112.888 0.96875 114.971 0.5625 117.305 0.5625C119.68 0.5625 121.753 0.96875 123.523 1.78125C125.305 2.59375 126.69 3.72396 127.68 5.17188C128.669 6.61979 129.18 8.29687 129.211 10.2031H122.727Z" fill="#FFD700"/>
<path d="M132.98 6.57812V1H159.262V6.57812H149.465V33H142.777V6.57812H132.98Z" fill="#FFD700"/>
<path d="M163.59 33V1H176.215C178.632 1 180.694 1.43229 182.402 2.29688C184.121 3.15104 185.428 4.36458 186.324 5.9375C187.23 7.5 187.684 9.33854 187.684 11.4531C187.684 13.5781 187.225 15.4063 186.309 16.9375C185.392 18.4583 184.064 19.625 182.324 20.4375C180.595 21.25 178.501 21.6563 176.043 21.6563L170.355 21.5V16.2188H174.949C176.241 16.2188 177.314 16.0417 178.168 15.6875C179.022 15.3333 179.658 14.8021 180.074 14.0938C180.501 13.3854 180.715 12.5052 180.715 11.4531C180.715 10.3906 180.501 9.49479 180.074 8.76563C179.658 8.03646 179.017 7.48437 178.152 7.10938C177.298 6.72396 176.22 6.53125 174.918 6.53125H170.355V33H163.59ZM182.324 20.4375L188.824 33H181.355L173.574 18.4375L182.324 20.4375Z" fill="#FFD700"/>
<path d="M221.871 17C221.871 20.4896 221.21 23.4583 219.887 25.9063C218.574 28.3542 216.783 30.224 214.512 31.5156C212.251 32.7969 209.71 33.4375 206.887 33.4375C204.043 33.4375 201.491 32.7917 199.23 31.5C196.97 30.2083 195.184 28.3385 193.871 25.8906C192.559 23.4427 191.902 20.4792 191.902 17C191.902 13.5104 192.559 10.5417 193.871 8.09375C195.184 5.64583 196.97 3.78125 199.23 2.5C201.491 1.20833 204.043 0.5625 206.887 0.5625C209.71 0.5625 212.251 1.20833 214.512 2.5C216.783 3.78125 218.574 5.64583 219.887 8.09375C221.21 10.5417 221.871 13.5104 221.871 17ZM215.012 17C215.012 14.7396 214.673 12.8333 213.996 11.2813C213.329 9.72917 212.387 8.55209 211.168 7.75C209.949 6.94792 208.522 6.54688 206.887 6.54688C205.251 6.54688 203.824 6.94792 202.605 7.75C201.387 8.55209 200.439 9.72917 199.762 11.2813C199.095 12.8333 198.762 14.7396 198.762 17C198.762 19.2604 199.095 21.1667 199.762 22.7188C200.439 24.2708 201.387 25.4479 202.605 26.25C203.824 27.0521 205.251 27.4531 206.887 27.4531C208.522 27.4531 209.949 27.0521 211.168 26.25C212.387 25.4479 213.329 24.2708 213.996 22.7188C214.673 21.1667 215.012 19.2604 215.012 17Z" fill="#FFD700"/>
<path d="M223.074 1H230.652L237.949 14.7813H238.262L245.559 1H253.137L241.465 21.6875V33H234.746V21.6875L223.074 1Z" fill="#FFD700"/>
<path d="M61.6989 87V56.4545H72.0199C74.4162 56.4545 76.375 56.8871 77.8963 57.7521C79.4276 58.6072 80.5611 59.7656 81.2969 61.2273C82.0327 62.6889 82.4006 64.3196 82.4006 66.1193C82.4006 67.919 82.0327 69.5547 81.2969 71.0263C80.571 72.4979 79.4474 73.6712 77.9261 74.5462C76.4048 75.4112 74.456 75.8438 72.0795 75.8438H64.6818V72.5625H71.9602C73.6009 72.5625 74.9183 72.2791 75.9126 71.7124C76.907 71.1456 77.6278 70.38 78.0753 69.4155C78.5327 68.4411 78.7614 67.3423 78.7614 66.1193C78.7614 64.8963 78.5327 63.8026 78.0753 62.8381C77.6278 61.8736 76.902 61.1179 75.8977 60.571C74.8935 60.0142 73.5611 59.7358 71.9006 59.7358H65.3977V87H61.6989Z" fill="#FFD700"/>
<path d="M101.663 87V67.3125H95.5778C94.2056 67.3125 93.1268 67.6307 92.3413 68.267C91.5558 68.9034 91.163 69.7784 91.163 70.892C91.163 71.9858 91.516 72.8459 92.2219 73.4723C92.9379 74.0987 93.9173 74.4119 95.1602 74.4119H102.558V77.6932H95.1602C93.609 77.6932 92.2717 77.4197 91.1481 76.8729C90.0245 76.326 89.1594 75.5455 88.5529 74.5312C87.9464 73.5071 87.6431 72.294 87.6431 70.892C87.6431 69.4801 87.9613 68.267 88.5977 67.2528C89.234 66.2386 90.1438 65.4581 91.3271 64.9112C92.5202 64.3643 93.9371 64.0909 95.5778 64.0909H105.004V87H101.663ZM86.3903 87L92.8931 75.6051H96.7113L90.2085 87H86.3903Z" fill="#FFD700"/>
<path d="M110.034 81.1534H113.792C113.872 82.1875 114.339 82.973 115.194 83.5099C116.059 84.0469 117.183 84.3153 118.565 84.3153C119.977 84.3153 121.185 84.027 122.189 83.4503C123.194 82.8636 123.696 81.919 123.696 80.6165C123.696 79.8509 123.507 79.1847 123.129 78.6179C122.751 78.0412 122.219 77.5937 121.533 77.2756C120.847 76.9574 120.037 76.7983 119.102 76.7983H115.165V73.6364H119.102C120.504 73.6364 121.538 73.3182 122.204 72.6818C122.881 72.0455 123.219 71.25 123.219 70.2955C123.219 69.2713 122.856 68.451 122.13 67.8345C121.404 67.2081 120.375 66.8949 119.042 66.8949C117.7 66.8949 116.582 67.1982 115.687 67.8047C114.792 68.4013 114.319 69.1719 114.27 70.1165H110.571C110.611 68.8835 110.988 67.7947 111.704 66.8501C112.42 65.8956 113.395 65.1499 114.628 64.6129C115.861 64.0661 117.273 63.7926 118.863 63.7926C120.474 63.7926 121.871 64.076 123.055 64.6428C124.248 65.1996 125.167 65.9602 125.814 66.9247C126.47 67.8793 126.798 68.9631 126.798 70.1761C126.798 71.4688 126.435 72.5128 125.709 73.3082C124.983 74.1037 124.074 74.6705 122.98 75.0085V75.2472C123.845 75.3068 124.596 75.5852 125.232 76.0824C125.878 76.5696 126.381 77.2109 126.738 78.0064C127.096 78.7919 127.275 79.6619 127.275 80.6165C127.275 82.0085 126.903 83.2216 126.157 84.2557C125.411 85.2798 124.387 86.0753 123.084 86.642C121.782 87.1989 120.295 87.4773 118.625 87.4773C117.004 87.4773 115.552 87.2138 114.27 86.6868C112.987 86.1499 111.968 85.4091 111.212 84.4645C110.466 83.5099 110.074 82.4063 110.034 81.1534Z" fill="#FFD700"/>
<path d="M138.961 87.5369C137.509 87.5369 136.192 87.2635 135.009 86.7166C133.825 86.1598 132.886 85.3594 132.19 84.3153C131.494 83.2614 131.146 81.9886 131.146 80.4972C131.146 79.1847 131.404 78.1207 131.921 77.3054C132.438 76.4801 133.129 75.8338 133.994 75.3665C134.86 74.8991 135.814 74.5511 136.858 74.3224C137.912 74.0838 138.971 73.8949 140.035 73.7557C141.427 73.5767 142.556 73.4425 143.421 73.353C144.296 73.2536 144.932 73.0895 145.33 72.8608C145.737 72.6321 145.941 72.2344 145.941 71.6676V71.5483C145.941 70.0767 145.539 68.9332 144.733 68.1179C143.938 67.3026 142.73 66.8949 141.109 66.8949C139.428 66.8949 138.111 67.2628 137.156 67.9986C136.202 68.7344 135.531 69.5199 135.143 70.3551L131.802 69.1619C132.399 67.7699 133.194 66.6861 134.188 65.9105C135.193 65.125 136.286 64.5781 137.47 64.2699C138.663 63.9517 139.836 63.7926 140.99 63.7926C141.725 63.7926 142.57 63.8821 143.525 64.0611C144.49 64.2301 145.419 64.5831 146.314 65.12C147.219 65.657 147.97 66.4673 148.566 67.5511C149.163 68.6349 149.461 70.0866 149.461 71.9062V87H145.941V83.8977H145.762C145.524 84.3949 145.126 84.9268 144.569 85.4936C144.012 86.0604 143.271 86.5426 142.347 86.9403C141.422 87.3381 140.294 87.5369 138.961 87.5369ZM139.498 84.375C140.89 84.375 142.063 84.1016 143.018 83.5547C143.982 83.0078 144.708 82.3018 145.195 81.4368C145.693 80.5717 145.941 79.6619 145.941 78.7074V75.4858C145.792 75.6648 145.464 75.8288 144.957 75.978C144.46 76.1172 143.883 76.2415 143.227 76.3509C142.58 76.4503 141.949 76.5398 141.333 76.6193C140.726 76.6889 140.234 76.7486 139.856 76.7983C138.941 76.9176 138.086 77.1115 137.291 77.38C136.505 77.6385 135.869 78.0313 135.382 78.5582C134.904 79.0753 134.666 79.7813 134.666 80.6761C134.666 81.8992 135.118 82.8239 136.023 83.4503C136.938 84.0668 138.096 84.375 139.498 84.375Z" fill="#FFD700"/>
<path d="M171.218 73.9347V77.2159H158.57V73.9347H171.218ZM159.406 64.0909V87H155.886V64.0909H159.406ZM173.903 64.0909V87H170.383V64.0909H173.903Z" fill="#FFD700"/>
<path d="M183.374 72.3835H189.936C192.621 72.3835 194.674 73.0646 196.096 74.4268C197.518 75.7891 198.229 77.5142 198.229 79.6023C198.229 80.9744 197.911 82.2223 197.274 83.3459C196.638 84.4595 195.703 85.3494 194.47 86.0156C193.237 86.6719 191.726 87 189.936 87H180.331V64.0909H183.851V83.7188H189.936C191.328 83.7188 192.472 83.3509 193.366 82.6151C194.261 81.8793 194.709 80.9347 194.709 79.7812C194.709 78.5682 194.261 77.5788 193.366 76.8132C192.472 76.0476 191.328 75.6648 189.936 75.6648H183.374V72.3835Z" fill="#FFD700"/>
</svg>
